<?xml version="1.0" encoding="UTF-8"?>
<!DOCTYPE svg PUBLIC "-//W3C//DTD SVG 1.1//EN" "http://www.w3.org/Graphics/SVG/1.1/DTD/svg11.dtd">
<svg width="275mm" height="155mm" viewBox="0 0 27500 15500" version="1.1" xmlns="http://www.w3.org/2000/svg" xmlns:xlink="http://www.w3.org/1999/xlink" stroke-width="28.222" stroke-linejoin="round" xml:space="preserve">
 <path fill="rgb(255,255,255)" stroke="none" d="M 13740,15457 L 0,15457 0,0 27480,0 27480,15457 13740,15457 Z"/>
 <path fill="none" stroke="rgb(179,179,179)" stroke-linejoin="round" d="M 13372,13520 L 3319,13520 3319,1733 23424,1733 23424,13520 13372,13520 Z"/>
 <path fill="none" stroke="rgb(179,179,179)" stroke-linejoin="round" d="M 23424,13519 L 3319,13519"/>
 <path fill="none" stroke="rgb(179,179,179)" stroke-linejoin="round" d="M 23424,11161 L 3319,11161"/>
 <path fill="none" stroke="rgb(179,179,179)" stroke-linejoin="round" d="M 23424,8803 L 3319,8803"/>
 <path fill="none" stroke="rgb(179,179,179)" stroke-linejoin="round" d="M 23424,6447 L 3319,6447"/>
 <path fill="none" stroke="rgb(179,179,179)" stroke-linejoin="round" d="M 23424,4089 L 3319,4089"/>
 <path fill="none" stroke="rgb(179,179,179)" stroke-linejoin="round" d="M 23424,1731 L 3319,1731"/>
 <path fill="none" stroke="rgb(221,221,221)" stroke-linejoin="round" d="M 23424,12809 L 3319,12809"/>
 <path fill="none" stroke="rgb(221,221,221)" stroke-linejoin="round" d="M 23424,12394 L 3319,12394"/>
 <path fill="none" stroke="rgb(221,221,221)" stroke-linejoin="round" d="M 23424,12099 L 3319,12099"/>
 <path fill="none" stroke="rgb(221,221,221)" stroke-linejoin="round" d="M 23424,11871 L 3319,11871"/>
 <path fill="none" stroke="rgb(221,221,221)" stroke-linejoin="round" d="M 23424,11684 L 3319,11684"/>
 <path fill="none" stroke="rgb(221,221,221)" stroke-linejoin="round" d="M 23424,11526 L 3319,11526"/>
 <path fill="none" stroke="rgb(221,221,221)" stroke-linejoin="round" d="M 23424,11389 L 3319,11389"/>
 <path fill="none" stroke="rgb(221,221,221)" stroke-linejoin="round" d="M 23424,11269 L 3319,11269"/>
 <path fill="none" stroke="rgb(221,221,221)" stroke-linejoin="round" d="M 23424,10451 L 3319,10451"/>
 <path fill="none" stroke="rgb(221,221,221)" stroke-linejoin="round" d="M 23424,10036 L 3319,10036"/>
 <path fill="none" stroke="rgb(221,221,221)" stroke-linejoin="round" d="M 23424,9741 L 3319,9741"/>
 <path fill="none" stroke="rgb(221,221,221)" stroke-linejoin="round" d="M 23424,9513 L 3319,9513"/>
 <path fill="none" stroke="rgb(221,221,221)" stroke-linejoin="round" d="M 23424,9326 L 3319,9326"/>
 <path fill="none" stroke="rgb(221,221,221)" stroke-linejoin="round" d="M 23424,9168 L 3319,9168"/>
 <path fill="none" stroke="rgb(221,221,221)" stroke-linejoin="round" d="M 23424,9032 L 3319,9032"/>
 <path fill="none" stroke="rgb(221,221,221)" stroke-linejoin="round" d="M 23424,8911 L 3319,8911"/>
 <path fill="none" stroke="rgb(221,221,221)" stroke-linejoin="round" d="M 23424,8094 L 3319,8094"/>
 <path fill="none" stroke="rgb(221,221,221)" stroke-linejoin="round" d="M 23424,7679 L 3319,7679"/>
 <path fill="none" stroke="rgb(221,221,221)" stroke-linejoin="round" d="M 23424,7385 L 3319,7385"/>
 <path fill="none" stroke="rgb(221,221,221)" stroke-linejoin="round" d="M 23424,7156 L 3319,7156"/>
 <path fill="none" stroke="rgb(221,221,221)" stroke-linejoin="round" d="M 23424,6970 L 3319,6970"/>
 <path fill="none" stroke="rgb(221,221,221)" stroke-linejoin="round" d="M 23424,6812 L 3319,6812"/>
 <path fill="none" stroke="rgb(221,221,221)" stroke-linejoin="round" d="M 23424,6675 L 3319,6675"/>
 <path fill="none" stroke="rgb(221,221,221)" stroke-linejoin="round" d="M 23424,6555 L 3319,6555"/>
 <path fill="none" stroke="rgb(221,221,221)" stroke-linejoin="round" d="M 23424,5737 L 3319,5737"/>
 <path fill="none" stroke="rgb(221,221,221)" stroke-linejoin="round" d="M 23424,5322 L 3319,5322"/>
 <path fill="none" stroke="rgb(221,221,221)" stroke-linejoin="round" d="M 23424,5027 L 3319,5027"/>
 <path fill="none" stroke="rgb(221,221,221)" stroke-linejoin="round" d="M 23424,4799 L 3319,4799"/>
 <path fill="none" stroke="rgb(221,221,221)" stroke-linejoin="round" d="M 23424,4612 L 3319,4612"/>
 <path fill="none" stroke="rgb(221,221,221)" stroke-linejoin="round" d="M 23424,4454 L 3319,4454"/>
 <path fill="none" stroke="rgb(221,221,221)" stroke-linejoin="round" d="M 23424,4318 L 3319,4318"/>
 <path fill="none" stroke="rgb(221,221,221)" stroke-linejoin="round" d="M 23424,4197 L 3319,4197"/>
 <path fill="none" stroke="rgb(221,221,221)" stroke-linejoin="round" d="M 23424,3379 L 3319,3379"/>
 <path fill="none" stroke="rgb(221,221,221)" stroke-linejoin="round" d="M 23424,2964 L 3319,2964"/>
 <path fill="none" stroke="rgb(221,221,221)" stroke-linejoin="round" d="M 23424,2670 L 3319,2670"/>
 <path fill="none" stroke="rgb(221,221,221)" stroke-linejoin="round" d="M 23424,2441 L 3319,2441"/>
 <path fill="none" stroke="rgb(221,221,221)" stroke-linejoin="round" d="M 23424,2255 L 3319,2255"/>
 <path fill="none" stroke="rgb(221,221,221)" stroke-linejoin="round" d="M 23424,2097 L 3319,2097"/>
 <path fill="none" stroke="rgb(221,221,221)" stroke-linejoin="round" d="M 23424,1960 L 3319,1960"/>
 <path fill="none" stroke="rgb(221,221,221)" stroke-linejoin="round" d="M 23424,1839 L 3319,1839"/>
 <path fill="none" stroke="rgb(179,179,179)" stroke-linejoin="round" d="M 3319,13669 L 3319,13519"/>
 <path fill="none" stroke="rgb(179,179,179)" stroke-linejoin="round" d="M 3319,13669 L 3319,13519"/>
 <path fill="none" stroke="rgb(179,179,179)" stroke-linejoin="round" d="M 4659,13669 L 4659,13519"/>
 <path fill="none" stroke="rgb(179,179,179)" stroke-linejoin="round" d="M 4659,13669 L 4659,13519"/>
 <path fill="none" stroke="rgb(179,179,179)" stroke-linejoin="round" d="M 5999,13669 L 5999,13519"/>
 <path fill="none" stroke="rgb(179,179,179)" stroke-linejoin="round" d="M 5999,13669 L 5999,13519"/>
 <path fill="none" stroke="rgb(179,179,179)" stroke-linejoin="round" d="M 7340,13669 L 7340,13519"/>
 <path fill="none" stroke="rgb(179,179,179)" stroke-linejoin="round" d="M 7340,13669 L 7340,13519"/>
 <path fill="none" stroke="rgb(179,179,179)" stroke-linejoin="round" d="M 8680,13669 L 8680,13519"/>
 <path fill="none" stroke="rgb(179,179,179)" stroke-linejoin="round" d="M 8680,13669 L 8680,13519"/>
 <path fill="none" stroke="rgb(179,179,179)" stroke-linejoin="round" d="M 10021,13669 L 10021,13519"/>
 <path fill="none" stroke="rgb(179,179,179)" stroke-linejoin="round" d="M 10021,13669 L 10021,13519"/>
 <path fill="none" stroke="rgb(179,179,179)" stroke-linejoin="round" d="M 11361,13669 L 11361,13519"/>
 <path fill="none" stroke="rgb(179,179,179)" stroke-linejoin="round" d="M 11361,13669 L 11361,13519"/>
 <path fill="none" stroke="rgb(179,179,179)" stroke-linejoin="round" d="M 12701,13669 L 12701,13519"/>
 <path fill="none" stroke="rgb(179,179,179)" stroke-linejoin="round" d="M 12701,13669 L 12701,13519"/>
 <path fill="none" stroke="rgb(179,179,179)" stroke-linejoin="round" d="M 14041,13669 L 14041,13519"/>
 <path fill="none" stroke="rgb(179,179,179)" stroke-linejoin="round" d="M 14041,13669 L 14041,13519"/>
 <path fill="none" stroke="rgb(179,179,179)" stroke-linejoin="round" d="M 15381,13669 L 15381,13519"/>
 <path fill="none" stroke="rgb(179,179,179)" stroke-linejoin="round" d="M 15381,13669 L 15381,13519"/>
 <path fill="none" stroke="rgb(179,179,179)" stroke-linejoin="round" d="M 16722,13669 L 16722,13519"/>
 <path fill="none" stroke="rgb(179,179,179)" stroke-linejoin="round" d="M 16722,13669 L 16722,13519"/>
 <path fill="none" stroke="rgb(179,179,179)" stroke-linejoin="round" d="M 18062,13669 L 18062,13519"/>
 <path fill="none" stroke="rgb(179,179,179)" stroke-linejoin="round" d="M 18062,13669 L 18062,13519"/>
 <path fill="none" stroke="rgb(179,179,179)" stroke-linejoin="round" d="M 19402,13669 L 19402,13519"/>
 <path fill="none" stroke="rgb(179,179,179)" stroke-linejoin="round" d="M 19402,13669 L 19402,13519"/>
 <path fill="none" stroke="rgb(179,179,179)" stroke-linejoin="round" d="M 20743,13669 L 20743,13519"/>
 <path fill="none" stroke="rgb(179,179,179)" stroke-linejoin="round" d="M 20743,13669 L 20743,13519"/>
 <path fill="none" stroke="rgb(179,179,179)" stroke-linejoin="round" d="M 22083,13669 L 22083,13519"/>
 <path fill="none" stroke="rgb(179,179,179)" stroke-linejoin="round" d="M 22083,13669 L 22083,13519"/>
 <path fill="none" stroke="rgb(179,179,179)" stroke-linejoin="round" d="M 23424,13669 L 23424,13519"/>
 <path fill="none" stroke="rgb(179,179,179)" stroke-linejoin="round" d="M 23424,13669 L 23424,13519"/>
 <path fill="none" stroke="rgb(179,179,179)" stroke-linejoin="round" d="M 3319,13519 L 23424,13519"/>
 <path fill="none" stroke="rgb(179,179,179)" stroke-linejoin="round" d="M 3169,13519 L 3319,13519"/>
 <path fill="none" stroke="rgb(179,179,179)" stroke-linejoin="round" d="M 3169,13519 L 3319,13519"/>
 <path fill="none" stroke="rgb(179,179,179)" stroke-linejoin="round" d="M 3169,11161 L 3319,11161"/>
 <path fill="none" stroke="rgb(179,179,179)" stroke-linejoin="round" d="M 3169,11161 L 3319,11161"/>
 <path fill="none" stroke="rgb(179,179,179)" stroke-linejoin="round" d="M 3169,8803 L 3319,8803"/>
 <path fill="none" stroke="rgb(179,179,179)" stroke-linejoin="round" d="M 3169,8803 L 3319,8803"/>
 <path fill="none" stroke="rgb(179,179,179)" stroke-linejoin="round" d="M 3169,6447 L 3319,6447"/>
 <path fill="none" stroke="rgb(179,179,179)" stroke-linejoin="round" d="M 3169,6447 L 3319,6447"/>
 <path fill="none" stroke="rgb(179,179,179)" stroke-linejoin="round" d="M 3169,4089 L 3319,4089"/>
 <path fill="none" stroke="rgb(179,179,179)" stroke-linejoin="round" d="M 3169,4089 L 3319,4089"/>
 <path fill="none" stroke="rgb(179,179,179)" stroke-linejoin="round" d="M 3169,1731 L 3319,1731"/>
 <path fill="none" stroke="rgb(179,179,179)" stroke-linejoin="round" d="M 3169,1731 L 3319,1731"/>
 <path fill="none" stroke="rgb(179,179,179)" stroke-linejoin="round" d="M 3319,13519 L 3319,1731"/>
 <path fill="rgb(0,69,134)" stroke="none" d="M 22217,13519 L 22485,13519 22485,3715 22217,3715 22217,13519 Z"/>
 <path fill="rgb(0,69,134)" stroke="none" d="M 20877,13519 L 21145,13519 21145,4659 20877,4659 20877,13519 Z"/>
 <path fill="rgb(0,69,134)" stroke="none" d="M 19536,13519 L 19804,13519 19804,5485 19536,5485 19536,13519 Z"/>
 <path fill="rgb(0,69,134)" stroke="none" d="M 18196,13519 L 18464,13519 18464,6320 18196,6320 18196,13519 Z"/>
 <path fill="rgb(0,69,134)" stroke="none" d="M 16856,13519 L 17124,13519 17124,7174 16856,7174 16856,13519 Z"/>
 <path fill="rgb(0,69,134)" stroke="none" d="M 15515,13519 L 15783,13519 15783,7813 15515,7813 15515,13519 Z"/>
 <path fill="rgb(0,69,134)" stroke="none" d="M 14175,13519 L 14443,13519 14443,8601 14175,8601 14175,13519 Z"/>
 <path fill="rgb(0,69,134)" stroke="none" d="M 12835,13519 L 13103,13519 13103,9325 12835,9325 12835,13519 Z"/>
 <path fill="rgb(0,69,134)" stroke="none" d="M 11495,13519 L 11763,13519 11763,9791 11495,9791 11495,13519 Z"/>
 <path fill="rgb(0,69,134)" stroke="none" d="M 10155,13519 L 10423,13519 10423,10340 10155,10340 10155,13519 Z"/>
 <path fill="rgb(0,69,134)" stroke="none" d="M 8814,13519 L 9082,13519 9082,11062 8814,11062 8814,13519 Z"/>
 <path fill="rgb(0,69,134)" stroke="none" d="M 7474,13519 L 7742,13519 7742,11599 7474,11599 7474,13519 Z"/>
 <path fill="rgb(0,69,134)" stroke="none" d="M 6133,13519 L 6401,13519 6401,12032 6133,12032 6133,13519 Z"/>
 <path fill="rgb(0,69,134)" stroke="none" d="M 4793,13519 L 5061,13519 5061,12347 4793,12347 4793,13519 Z"/>
 <path fill="rgb(0,69,134)" stroke="none" d="M 3453,13519 L 3721,13519 3721,12811 3453,12811 3453,13519 Z"/>
 <path fill="rgb(255,66,14)" stroke="none" d="M 22485,13519 L 22753,13519 22753,4103 22485,4103 22485,13519 Z"/>
 <path fill="rgb(255,66,14)" stroke="none" d="M 21145,13519 L 21413,13519 21413,4569 21145,4569 21145,13519 Z"/>
 <path fill="rgb(255,66,14)" stroke="none" d="M 19804,13519 L 20073,13519 20073,5192 19804,5192 19804,13519 Z"/>
 <path fill="rgb(255,66,14)" stroke="none" d="M 18464,13519 L 18732,13519 18732,5825 18464,5825 18464,13519 Z"/>
 <path fill="rgb(255,66,14)" stroke="none" d="M 17124,13519 L 17392,13519 17392,6616 17124,6616 17124,13519 Z"/>
 <path fill="rgb(255,66,14)" stroke="none" d="M 15783,13519 L 16051,13519 16051,7342 15783,7342 15783,13519 Z"/>
 <path fill="rgb(255,66,14)" stroke="none" d="M 14443,13519 L 14711,13519 14711,8091 14443,8091 14443,13519 Z"/>
 <path fill="rgb(255,66,14)" stroke="none" d="M 13103,13519 L 13372,13519 13372,8854 13103,8854 13103,13519 Z"/>
 <path fill="rgb(255,66,14)" stroke="none" d="M 11763,13519 L 12031,13519 12031,9516 11763,9516 11763,13519 Z"/>
 <path fill="rgb(255,66,14)" stroke="none" d="M 10423,13519 L 10691,13519 10691,10252 10423,10252 10423,13519 Z"/>
 <path fill="rgb(255,66,14)" stroke="none" d="M 9082,13519 L 9350,13519 9350,10842 9082,10842 9082,13519 Z"/>
 <path fill="rgb(255,66,14)" stroke="none" d="M 7742,13519 L 8010,13519 8010,11320 7742,11320 7742,13519 Z"/>
 <path fill="rgb(255,66,14)" stroke="none" d="M 6401,13519 L 6670,13519 6670,11738 6401,11738 6401,13519 Z"/>
 <path fill="rgb(255,66,14)" stroke="none" d="M 5061,13519 L 5329,13519 5329,12379 5061,12379 5061,13519 Z"/>
 <path fill="rgb(255,66,14)" stroke="none" d="M 3721,13519 L 3989,13519 3989,12938 3721,12938 3721,13519 Z"/>
 <path fill="rgb(255,211,32)" stroke="none" d="M 22753,13519 L 23021,13519 23021,3582 22753,3582 22753,13519 Z"/>
 <path fill="rgb(255,211,32)" stroke="none" d="M 21413,13519 L 21681,13519 21681,4488 21413,4488 21413,13519 Z"/>
 <path fill="rgb(255,211,32)" stroke="none" d="M 20073,13519 L 20341,13519 20341,5646 20073,5646 20073,13519 Z"/>
 <path fill="rgb(255,211,32)" stroke="none" d="M 18732,13519 L 19000,13519 19000,6071 18732,6071 18732,13519 Z"/>
 <path fill="rgb(255,211,32)" stroke="none" d="M 17392,13519 L 17660,13519 17660,6582 17392,6582 17392,13519 Z"/>
 <path fill="rgb(255,211,32)" stroke="none" d="M 16051,13519 L 16319,13519 16319,7321 16051,7321 16051,13519 Z"/>
 <path fill="rgb(255,211,32)" stroke="none" d="M 14711,13519 L 14979,13519 14979,8051 14711,8051 14711,13519 Z"/>
 <path fill="rgb(255,211,32)" stroke="none" d="M 13372,13519 L 13640,13519 13640,8786 13372,8786 13372,13519 Z"/>
 <path fill="rgb(255,211,32)" stroke="none" d="M 12031,13519 L 12299,13519 12299,9554 12031,9554 12031,13519 Z"/>
 <path fill="rgb(255,211,32)" stroke="none" d="M 10691,13519 L 10959,13519 10959,10229 10691,10229 10691,13519 Z"/>
 <path fill="rgb(255,211,32)" stroke="none" d="M 9350,13519 L 9618,13519 9618,10809 9350,10809 9350,13519 Z"/>
 <path fill="rgb(255,211,32)" stroke="none" d="M 8010,13519 L 8278,13519 8278,11444 8010,11444 8010,13519 Z"/>
 <path fill="rgb(255,211,32)" stroke="none" d="M 6670,13519 L 6938,13519 6938,11880 6670,11880 6670,13519 Z"/>
 <path fill="rgb(255,211,32)" stroke="none" d="M 5329,13519 L 5597,13519 5597,12506 5329,12506 5329,13519 Z"/>
 <path fill="rgb(255,211,32)" stroke="none" d="M 3989,13519 L 4257,13519 4257,13156 3989,13156 3989,13519 Z"/>
 <path fill="rgb(87,157,28)" stroke="none" d="M 23021,13519 L 23289,13519 23289,4024 23021,4024 23021,13519 Z"/>
 <path fill="rgb(87,157,28)" stroke="none" d="M 21681,13519 L 21949,13519 21949,4479 21681,4479 21681,13519 Z"/>
 <path fill="rgb(87,157,28)" stroke="none" d="M 20341,13519 L 20609,13519 20609,5137 20341,5137 20341,13519 Z"/>
 <path fill="rgb(87,157,28)" stroke="none" d="M 19000,13519 L 19268,13519 19268,5848 19000,5848 19000,13519 Z"/>
 <path fill="rgb(87,157,28)" stroke="none" d="M 17660,13519 L 17928,13519 17928,6572 17660,6572 17660,13519 Z"/>
 <path fill="rgb(87,157,28)" stroke="none" d="M 16319,13519 L 16587,13519 16587,7310 16319,7310 16319,13519 Z"/>
 <path fill="rgb(87,157,28)" stroke="none" d="M 14979,13519 L 15247,13519 15247,8020 14979,8020 14979,13519 Z"/>
 <path fill="rgb(87,157,28)" stroke="none" d="M 13640,13519 L 13907,13519 13907,8703 13640,8703 13640,13519 Z"/>
 <path fill="rgb(87,157,28)" stroke="none" d="M 12299,13519 L 12567,13519 12567,9464 12299,9464 12299,13519 Z"/>
 <path fill="rgb(87,157,28)" stroke="none" d="M 10959,13519 L 11227,13519 11227,10238 10959,10238 10959,13519 Z"/>
 <path fill="rgb(87,157,28)" stroke="none" d="M 9618,13519 L 9886,13519 9886,10861 9618,10861 9618,13519 Z"/>
 <path fill="rgb(87,157,28)" stroke="none" d="M 8278,13519 L 8546,13519 8546,11143 8278,11143 8278,13519 Z"/>
 <path fill="rgb(87,157,28)" stroke="none" d="M 6938,13519 L 7206,13519 7206,11626 6938,11626 6938,13519 Z"/>
 <path fill="rgb(87,157,28)" stroke="none" d="M 5597,13519 L 5865,13519 5865,12381 5597,12381 5597,13519 Z"/>
 <path fill="rgb(87,157,28)" stroke="none" d="M 4257,13519 L 4525,13519 4525,12508 4257,12508 4257,13519 Z"/>
 <text class="TextShape"><tspan class="TextParagraph" font-family="Liberation Sans, sans-serif" font-size="353px" font-weight="400"><tspan class="TextPosition" x="3804" y="14087"><tspan fill="rgb(0,0,0)" stroke="none">32</tspan></tspan></tspan></text>
 <text class="TextShape"><tspan class="TextParagraph" font-family="Liberation Sans, sans-serif" font-size="353px" font-weight="400"><tspan class="TextPosition" x="5144" y="14087"><tspan fill="rgb(0,0,0)" stroke="none">64</tspan></tspan></tspan></text>
 <text class="TextShape"><tspan class="TextParagraph" font-family="Liberation Sans, sans-serif" font-size="353px" font-weight="400"><tspan class="TextPosition" x="6392" y="14087"><tspan fill="rgb(0,0,0)" stroke="none">128</tspan></tspan></tspan></text>
 <text class="TextShape"><tspan class="TextParagraph" font-family="Liberation Sans, sans-serif" font-size="353px" font-weight="400"><tspan class="TextPosition" x="7732" y="14087"><tspan fill="rgb(0,0,0)" stroke="none">256</tspan></tspan></tspan></text>
 <text class="TextShape"><tspan class="TextParagraph" font-family="Liberation Sans, sans-serif" font-size="353px" font-weight="400"><tspan class="TextPosition" x="9072" y="14087"><tspan fill="rgb(0,0,0)" stroke="none">512</tspan></tspan></tspan></text>
 <text class="TextShape"><tspan class="TextParagraph" font-family="Liberation Sans, sans-serif" font-size="353px" font-weight="400"><tspan class="TextPosition" x="10267" y="14087"><tspan fill="rgb(0,0,0)" stroke="none">1,024</tspan></tspan></tspan></text>
 <text class="TextShape"><tspan class="TextParagraph" font-family="Liberation Sans, sans-serif" font-size="353px" font-weight="400"><tspan class="TextPosition" x="11607" y="14087"><tspan fill="rgb(0,0,0)" stroke="none">2,048</tspan></tspan></tspan></text>
 <text class="TextShape"><tspan class="TextParagraph" font-family="Liberation Sans, sans-serif" font-size="353px" font-weight="400"><tspan class="TextPosition" x="12948" y="14087"><tspan fill="rgb(0,0,0)" stroke="none">4,096</tspan></tspan></tspan></text>
 <text class="TextShape"><tspan class="TextParagraph" font-family="Liberation Sans, sans-serif" font-size="353px" font-weight="400"><tspan class="TextPosition" x="14288" y="14087"><tspan fill="rgb(0,0,0)" stroke="none">8,192</tspan></tspan></tspan></text>
 <text class="TextShape"><tspan class="TextParagraph" font-family="Liberation Sans, sans-serif" font-size="353px" font-weight="400"><tspan class="TextPosition" x="15536" y="14087"><tspan fill="rgb(0,0,0)" stroke="none">16,384</tspan></tspan></tspan></text>
 <text class="TextShape"><tspan class="TextParagraph" font-family="Liberation Sans, sans-serif" font-size="353px" font-weight="400"><tspan class="TextPosition" x="16877" y="14087"><tspan fill="rgb(0,0,0)" stroke="none">32,768</tspan></tspan></tspan></text>
 <text class="TextShape"><tspan class="TextParagraph" font-family="Liberation Sans, sans-serif" font-size="353px" font-weight="400"><tspan class="TextPosition" x="18217" y="14087"><tspan fill="rgb(0,0,0)" stroke="none">65,536</tspan></tspan></tspan></text>
 <text class="TextShape"><tspan class="TextParagraph" font-family="Liberation Sans, sans-serif" font-size="353px" font-weight="400"><tspan class="TextPosition" x="19465" y="14087"><tspan fill="rgb(0,0,0)" stroke="none">131,072</tspan></tspan></tspan></text>
 <text class="TextShape"><tspan class="TextParagraph" font-family="Liberation Sans, sans-serif" font-size="353px" font-weight="400"><tspan class="TextPosition" x="20805" y="14087"><tspan fill="rgb(0,0,0)" stroke="none">262,144</tspan></tspan></tspan></text>
 <text class="TextShape"><tspan class="TextParagraph" font-family="Liberation Sans, sans-serif" font-size="353px" font-weight="400"><tspan class="TextPosition" x="22145" y="14087"><tspan fill="rgb(0,0,0)" stroke="none">524,288</tspan></tspan></tspan></text>
 <text class="TextShape"><tspan class="TextParagraph" font-family="Liberation Sans, sans-serif" font-size="353px" font-weight="400"><tspan class="TextPosition" x="2699" y="13640"><tspan fill="rgb(0,0,0)" stroke="none">10</tspan></tspan></tspan></text>
 <text class="TextShape"><tspan class="TextParagraph" font-family="Liberation Sans, sans-serif" font-size="353px" font-weight="400"><tspan class="TextPosition" x="2513" y="11282"><tspan fill="rgb(0,0,0)" stroke="none">100</tspan></tspan></tspan></text>
 <text class="TextShape"><tspan class="TextParagraph" font-family="Liberation Sans, sans-serif" font-size="353px" font-weight="400"><tspan class="TextPosition" x="2222" y="8924"><tspan fill="rgb(0,0,0)" stroke="none">1,000</tspan></tspan></tspan></text>
 <text class="TextShape"><tspan class="TextParagraph" font-family="Liberation Sans, sans-serif" font-size="353px" font-weight="400"><tspan class="TextPosition" x="2037" y="6567"><tspan fill="rgb(0,0,0)" stroke="none">10,000</tspan></tspan></tspan></text>
 <text class="TextShape"><tspan class="TextParagraph" font-family="Liberation Sans, sans-serif" font-size="353px" font-weight="400"><tspan class="TextPosition" x="1852" y="4209"><tspan fill="rgb(0,0,0)" stroke="none">100,000</tspan></tspan></tspan></text>
 <text class="TextShape"><tspan class="TextParagraph" font-family="Liberation Sans, sans-serif" font-size="353px" font-weight="400"><tspan class="TextPosition" x="1561" y="1851"><tspan fill="rgb(0,0,0)" stroke="none">1,000,000</tspan></tspan></tspan></text>
 <text class="TextShape"><tspan class="TextParagraph" font-family="Liberation Sans, sans-serif" font-size="459px" font-weight="400"><tspan class="TextPosition" x="11742" y="980"><tspan fill="rgb(0,0,0)" stroke="none">Random writes (log)</tspan></tspan></tspan></text>
 <path fill="rgb(0,69,134)" stroke="none" d="M 24195,7087 L 24089,7087 24089,6876 24300,6876 24300,7087 24195,7087 Z"/>
 <path fill="rgb(255,66,14)" stroke="none" d="M 24195,7585 L 24089,7585 24089,7374 24300,7374 24300,7585 24195,7585 Z"/>
 <path fill="rgb(255,211,32)" stroke="none" d="M 24195,8082 L 24089,8082 24089,7871 24300,7871 24300,8082 24195,8082 Z"/>
 <path fill="rgb(87,157,28)" stroke="none" d="M 24195,8580 L 24089,8580 24089,8369 24300,8369 24300,8580 24195,8580 Z"/>
 <text class="TextShape"><tspan class="TextParagraph" font-family="Liberation Sans, sans-serif" font-size="353px" font-weight="400"><tspan class="TextPosition" x="24400" y="7101"><tspan fill="rgb(0,0,0)" stroke="none">boxed random</tspan></tspan></tspan></text>
 <text class="TextShape"><tspan class="TextParagraph" font-family="Liberation Sans, sans-serif" font-size="353px" font-weight="400"><tspan class="TextPosition" x="24400" y="7599"><tspan fill="rgb(0,0,0)" stroke="none">flat random</tspan></tspan></tspan></text>
 <text class="TextShape"><tspan class="TextParagraph" font-family="Liberation Sans, sans-serif" font-size="353px" font-weight="400"><tspan class="TextPosition" x="24400" y="8096"><tspan fill="rgb(0,0,0)" stroke="none">padded random</tspan></tspan></tspan></text>
 <text class="TextShape"><tspan class="TextParagraph" font-family="Liberation Sans, sans-serif" font-size="353px" font-weight="400"><tspan class="TextPosition" x="24400" y="8594"><tspan fill="rgb(0,0,0)" stroke="none">remapped random</tspan></tspan></tspan></text>
 <text class="TextShape"><tspan class="TextParagraph" font-family="Liberation Sans, sans-serif" font-size="318px" font-weight="400"><tspan class="TextPosition" x="11632" y="14863"><tspan fill="rgb(0,0,0)" stroke="none">array length</tspan></tspan></tspan></text>
 <text class="TextShape" transform="rotate(-90 837 8511)"><tspan class="TextParagraph" font-family="Liberation Sans, sans-serif" font-size="318px" font-weight="400"><tspan class="TextPosition" x="837" y="8511"><tspan fill="rgb(0,0,0)" stroke="none">time (ms)</tspan></tspan></tspan></text>
</svg>